<svg version="1.1" id="Layer_1" xmlns="http://www.w3.org/2000/svg" xmlns:xlink="http://www.w3.org/1999/xlink" x="0px" y="0px"
	 width="100%" viewBox="0 0 187 207" enable-background="new 0 0 187 207" xml:space="preserve">
<path fill="#000000" opacity="1.000000" stroke="none" 
	d="
M115.000000,208.000000 
	C76.690681,208.000000 38.881371,208.000000 1.036028,208.000000 
	C1.036028,139.067841 1.036028,70.135651 1.036028,1.101735 
	C63.225788,1.101735 125.451797,1.101735 187.838898,1.101735 
	C187.838898,69.999695 187.838898,138.999817 187.838898,208.000000 
	C163.802612,208.000000 139.651306,208.000000 115.000000,208.000000 
M96.550461,202.812363 
	C99.934387,202.179993 103.323418,201.573593 106.701126,200.909576 
	C112.727623,199.724854 118.853439,194.012787 119.683968,188.013229 
	C120.530067,181.901154 117.235825,177.718552 112.154716,174.641922 
	C98.662346,166.472321 84.818962,158.797180 71.886711,149.814606 
	C61.458904,142.571594 52.012287,133.862305 46.379395,121.921371 
	C43.098663,114.966705 45.493053,105.439674 51.690418,101.013657 
	C61.983452,93.662605 78.158997,95.322334 87.005951,104.382179 
	C89.229057,106.658783 91.944733,108.454391 94.421600,110.460976 
	C102.134621,101.095795 110.870178,96.279144 122.472359,96.807610 
	C129.805252,97.141624 135.354965,100.287437 138.951584,106.143112 
	C143.014038,112.757187 143.059830,119.698227 138.352661,126.511169 
	C129.839111,138.833298 119.443275,147.894089 103.699295,149.319733 
	C101.438866,149.524414 97.963417,151.901154 97.652580,153.717941 
	C97.333481,155.582962 99.786934,158.555115 101.775543,160.040894 
	C105.156921,162.567245 109.217728,164.159851 112.825508,166.413086 
	C118.748741,170.112427 124.635910,173.891647 126.449142,181.429214 
	C126.759575,182.719711 127.967613,183.794296 128.891602,185.161911 
	C143.345367,174.708328 156.459671,163.500351 165.483765,148.548279 
	C176.552322,130.208771 179.741699,111.018471 169.418747,90.915634 
	C156.150269,65.076698 119.365990,55.984459 96.879654,76.727463 
	C94.145172,79.249947 91.962822,78.971367 89.112389,76.842407 
	C85.313148,74.004791 81.406227,71.044090 77.088531,69.215279 
	C60.554054,62.211910 44.485878,64.602356 30.712120,75.298874 
	C7.988123,92.946014 7.118602,122.088608 20.035910,144.399017 
	C27.318031,156.976501 37.063278,167.292984 48.158417,176.560242 
	C62.336323,188.402420 76.966118,199.257187 96.550461,202.812363 
M114.839912,53.244713 
	C121.314133,45.057026 121.874603,35.097683 119.105927,26.266825 
	C115.625877,15.167020 104.648956,5.835038 88.964256,7.978014 
	C77.562050,9.535880 69.763985,15.779481 66.366196,26.192736 
	C62.645638,37.595211 64.920769,48.483528 74.181572,56.950699 
	C84.759438,66.622078 103.562401,66.834694 114.839912,53.244713 
z"/>
<path fill="#1B8186" opacity="1.000000" stroke="none" 
	d="
M96.132881,202.762115 
	C76.966118,199.257187 62.336323,188.402420 48.158417,176.560242 
	C37.063278,167.292984 27.318031,156.976501 20.035910,144.399017 
	C7.118602,122.088608 7.988123,92.946014 30.712120,75.298874 
	C44.485878,64.602356 60.554054,62.211910 77.088531,69.215279 
	C81.406227,71.044090 85.313148,74.004791 89.112389,76.842407 
	C91.962822,78.971367 94.145172,79.249947 96.879654,76.727463 
	C119.365990,55.984459 156.150269,65.076698 169.418747,90.915634 
	C179.741699,111.018471 176.552322,130.208771 165.483765,148.548279 
	C156.459671,163.500351 143.345367,174.708328 128.891602,185.161911 
	C127.967613,183.794296 126.759575,182.719711 126.449142,181.429214 
	C124.635910,173.891647 118.748741,170.112427 112.825508,166.413086 
	C109.217728,164.159851 105.156921,162.567245 101.775543,160.040894 
	C99.786934,158.555115 97.333481,155.582962 97.652580,153.717941 
	C97.963417,151.901154 101.438866,149.524414 103.699295,149.319733 
	C119.443275,147.894089 129.839111,138.833298 138.352661,126.511169 
	C143.059830,119.698227 143.014038,112.757187 138.951584,106.143112 
	C135.354965,100.287437 129.805252,97.141624 122.472359,96.807610 
	C110.870178,96.279144 102.134621,101.095795 94.421600,110.460976 
	C91.944733,108.454391 89.229057,106.658783 87.005951,104.382179 
	C78.158997,95.322334 61.983452,93.662605 51.690418,101.013657 
	C45.493053,105.439674 43.098663,114.966705 46.379395,121.921371 
	C52.012287,133.862305 61.458904,142.571594 71.886711,149.814606 
	C84.818962,158.797180 98.662346,166.472321 112.154716,174.641922 
	C117.235825,177.718552 120.530067,181.901154 119.683968,188.013229 
	C118.853439,194.012787 112.727623,199.724854 106.701126,200.909576 
	C103.323418,201.573593 99.934387,202.179993 96.132881,202.762115 
z"/>
<path fill="#1C8186" opacity="1.000000" stroke="none" 
	d="
M114.643654,53.549133 
	C103.562401,66.834694 84.759438,66.622078 74.181572,56.950699 
	C64.920769,48.483528 62.645638,37.595211 66.366196,26.192736 
	C69.763985,15.779481 77.562050,9.535880 88.964256,7.978014 
	C104.648956,5.835038 115.625877,15.167020 119.105927,26.266825 
	C121.874603,35.097683 121.314133,45.057026 114.643654,53.549133 
z"/>
</svg>